<svg width="360" height="1150" viewBox="0 0 360 1150" fill="none" xmlns="http://www.w3.org/2000/svg">
<line x1="1" x2="1" y2="152" stroke="#FF0000" stroke-width="2"/>
<line x1="1" y1="420" x2="1" y2="612" stroke="#FF0000" stroke-width="2"/>
<line x1="1" y1="880" x2="1" y2="1072" stroke="#FF0000" stroke-width="2"/>
<line x1="359" y1="190" x2="359" y2="382" stroke="#FF0000" stroke-width="2"/>
<line x1="340" y1="171" x2="20" y2="171" stroke="#CF2C3C" stroke-width="2"/>
<mask id="path-6-inside-1_37_85" fill="white">
<path d="M20 172C17.3736 172 14.7728 171.483 12.3463 170.478C9.91982 169.472 7.71503 167.999 5.85786 166.142C4.00069 164.285 2.5275 162.08 1.52241 159.654C0.517314 157.227 -8.55801e-07 154.626 0 152L1.97229 152C1.97229 154.367 2.43859 156.712 3.34457 158.899C4.25054 161.086 5.57845 163.073 7.25248 164.748C8.92651 166.422 10.9139 167.749 13.1011 168.655C15.2883 169.561 17.6326 170.028 20 170.028L20 172Z"/>
</mask>
<path d="M20 172C17.3736 172 14.7728 171.483 12.3463 170.478C9.91982 169.472 7.71503 167.999 5.85786 166.142C4.00069 164.285 2.5275 162.08 1.52241 159.654C0.517314 157.227 -8.55801e-07 154.626 0 152L1.97229 152C1.97229 154.367 2.43859 156.712 3.34457 158.899C4.25054 161.086 5.57845 163.073 7.25248 164.748C8.92651 166.422 10.9139 167.749 13.1011 168.655C15.2883 169.561 17.6326 170.028 20 170.028L20 172Z" fill="#F01010" stroke="#FF0000" stroke-width="4" mask="url(#path-6-inside-1_37_85)"/>
<mask id="path-7-inside-2_37_85" fill="white">
<path d="M340 170C342.626 170 345.227 170.517 347.654 171.522C350.08 172.528 352.285 174.001 354.142 175.858C355.999 177.715 357.472 179.92 358.478 182.346C359.483 184.773 360 187.374 360 190L358.028 190C358.028 187.633 357.561 185.288 356.655 183.101C355.749 180.914 354.422 178.927 352.748 177.252C351.073 175.578 349.086 174.251 346.899 173.345C344.712 172.439 342.367 171.972 340 171.972L340 170Z"/>
</mask>
<path d="M340 170C342.626 170 345.227 170.517 347.654 171.522C350.08 172.528 352.285 174.001 354.142 175.858C355.999 177.715 357.472 179.92 358.478 182.346C359.483 184.773 360 187.374 360 190L358.028 190C358.028 187.633 357.561 185.288 356.655 183.101C355.749 180.914 354.422 178.927 352.748 177.252C351.073 175.578 349.086 174.251 346.899 173.345C344.712 172.439 342.367 171.972 340 171.972L340 170Z" fill="#F01010" stroke="#FF0000" stroke-width="4" mask="url(#path-7-inside-2_37_85)"/>
<line y1="-1" x2="320" y2="-1" transform="matrix(-1 0 0 1 340 402)" stroke="#FF0000" stroke-width="2"/>
<mask id="path-9-inside-3_37_85" fill="white">
<path d="M20 400C17.3736 400 14.7728 400.517 12.3463 401.522C9.91982 402.528 7.71503 404.001 5.85786 405.858C4.00069 407.715 2.5275 409.92 1.52241 412.346C0.517314 414.773 -8.55801e-07 417.374 0 420L1.97229 420C1.97229 417.633 2.43859 415.288 3.34457 413.101C4.25054 410.914 5.57845 408.927 7.25248 407.252C8.92651 405.578 10.9139 404.251 13.1011 403.345C15.2883 402.439 17.6326 401.972 20 401.972L20 400Z"/>
</mask>
<path d="M20 400C17.3736 400 14.7728 400.517 12.3463 401.522C9.91982 402.528 7.71503 404.001 5.85786 405.858C4.00069 407.715 2.5275 409.92 1.52241 412.346C0.517314 414.773 -8.55801e-07 417.374 0 420L1.97229 420C1.97229 417.633 2.43859 415.288 3.34457 413.101C4.25054 410.914 5.57845 408.927 7.25248 407.252C8.92651 405.578 10.9139 404.251 13.1011 403.345C15.2883 402.439 17.6326 401.972 20 401.972L20 400Z" fill="#F01010" stroke="#FF0000" stroke-width="4" mask="url(#path-9-inside-3_37_85)"/>
<mask id="path-10-inside-4_37_85" fill="white">
<path d="M340 402C342.626 402 345.227 401.483 347.654 400.478C350.08 399.472 352.285 397.999 354.142 396.142C355.999 394.285 357.472 392.08 358.478 389.654C359.483 387.227 360 384.626 360 382L358.028 382C358.028 384.367 357.561 386.712 356.655 388.899C355.749 391.086 354.422 393.073 352.748 394.748C351.073 396.422 349.086 397.749 346.899 398.655C344.712 399.561 342.367 400.028 340 400.028L340 402Z"/>
</mask>
<path d="M340 402C342.626 402 345.227 401.483 347.654 400.478C350.08 399.472 352.285 397.999 354.142 396.142C355.999 394.285 357.472 392.08 358.478 389.654C359.483 387.227 360 384.626 360 382L358.028 382C358.028 384.367 357.561 386.712 356.655 388.899C355.749 391.086 354.422 393.073 352.748 394.748C351.073 396.422 349.086 397.749 346.899 398.655C344.712 399.561 342.367 400.028 340 400.028L340 402Z" fill="#F01010" stroke="#FF0000" stroke-width="4" mask="url(#path-10-inside-4_37_85)"/>
<line x1="359" y1="650" x2="359" y2="842" stroke="#FF0000" stroke-width="2"/>
<line x1="340" y1="631" x2="20" y2="631" stroke="#FF0000" stroke-width="2"/>
<mask id="path-13-inside-5_37_85" fill="white">
<path d="M20 632C17.3736 632 14.7728 631.483 12.3463 630.478C9.91982 629.472 7.71503 627.999 5.85786 626.142C4.00069 624.285 2.5275 622.08 1.52241 619.654C0.517314 617.227 -8.55801e-07 614.626 0 612L1.97229 612C1.97229 614.367 2.43859 616.712 3.34457 618.899C4.25054 621.086 5.57845 623.073 7.25248 624.748C8.92651 626.422 10.9139 627.749 13.1011 628.655C15.2883 629.561 17.6326 630.028 20 630.028L20 632Z"/>
</mask>
<path d="M20 632C17.3736 632 14.7728 631.483 12.3463 630.478C9.91982 629.472 7.71503 627.999 5.85786 626.142C4.00069 624.285 2.5275 622.08 1.52241 619.654C0.517314 617.227 -8.55801e-07 614.626 0 612L1.97229 612C1.97229 614.367 2.43859 616.712 3.34457 618.899C4.25054 621.086 5.57845 623.073 7.25248 624.748C8.92651 626.422 10.9139 627.749 13.1011 628.655C15.2883 629.561 17.6326 630.028 20 630.028L20 632Z" fill="#F01010" stroke="#FF0000" stroke-width="4" mask="url(#path-13-inside-5_37_85)"/>
<mask id="path-14-inside-6_37_85" fill="white">
<path d="M340 630C342.626 630 345.227 630.517 347.654 631.522C350.08 632.528 352.285 634.001 354.142 635.858C355.999 637.715 357.472 639.92 358.478 642.346C359.483 644.773 360 647.374 360 650L358.028 650C358.028 647.633 357.561 645.288 356.655 643.101C355.749 640.914 354.422 638.927 352.748 637.252C351.073 635.578 349.086 634.251 346.899 633.345C344.712 632.439 342.367 631.972 340 631.972L340 630Z"/>
</mask>
<path d="M340 630C342.626 630 345.227 630.517 347.654 631.522C350.08 632.528 352.285 634.001 354.142 635.858C355.999 637.715 357.472 639.92 358.478 642.346C359.483 644.773 360 647.374 360 650L358.028 650C358.028 647.633 357.561 645.288 356.655 643.101C355.749 640.914 354.422 638.927 352.748 637.252C351.073 635.578 349.086 634.251 346.899 633.345C344.712 632.439 342.367 631.972 340 631.972L340 630Z" fill="#F01010" stroke="#FF0000" stroke-width="4" mask="url(#path-14-inside-6_37_85)"/>
<line y1="-1" x2="320" y2="-1" transform="matrix(-1 0 0 1 340 862)" stroke="#FF0000" stroke-width="2"/>
<mask id="path-16-inside-7_37_85" fill="white">
<path d="M20 860C17.3736 860 14.7728 860.517 12.3463 861.522C9.91982 862.528 7.71503 864.001 5.85786 865.858C4.00069 867.715 2.5275 869.92 1.52241 872.346C0.517314 874.773 -8.55801e-07 877.374 0 880L1.97229 880C1.97229 877.633 2.43859 875.288 3.34457 873.101C4.25054 870.914 5.57845 868.927 7.25248 867.252C8.92651 865.578 10.9139 864.251 13.1011 863.345C15.2883 862.439 17.6326 861.972 20 861.972L20 860Z"/>
</mask>
<path d="M20 860C17.3736 860 14.7728 860.517 12.3463 861.522C9.91982 862.528 7.71503 864.001 5.85786 865.858C4.00069 867.715 2.5275 869.92 1.52241 872.346C0.517314 874.773 -8.55801e-07 877.374 0 880L1.97229 880C1.97229 877.633 2.43859 875.288 3.34457 873.101C4.25054 870.914 5.57845 868.927 7.25248 867.252C8.92651 865.578 10.9139 864.251 13.1011 863.345C15.2883 862.439 17.6326 861.972 20 861.972L20 860Z" fill="#F01010" stroke="#FF0000" stroke-width="4" mask="url(#path-16-inside-7_37_85)"/>
<mask id="path-17-inside-8_37_85" fill="white">
<path d="M340 862C342.626 862 345.227 861.483 347.654 860.478C350.08 859.472 352.285 857.999 354.142 856.142C355.999 854.285 357.472 852.08 358.478 849.654C359.483 847.227 360 844.626 360 842L358.028 842C358.028 844.367 357.561 846.712 356.655 848.899C355.749 851.086 354.422 853.073 352.748 854.748C351.073 856.422 349.086 857.749 346.899 858.655C344.712 859.561 342.367 860.028 340 860.028L340 862Z"/>
</mask>
<path d="M340 862C342.626 862 345.227 861.483 347.654 860.478C350.08 859.472 352.285 857.999 354.142 856.142C355.999 854.285 357.472 852.08 358.478 849.654C359.483 847.227 360 844.626 360 842L358.028 842C358.028 844.367 357.561 846.712 356.655 848.899C355.749 851.086 354.422 853.073 352.748 854.748C351.073 856.422 349.086 857.749 346.899 858.655C344.712 859.561 342.367 860.028 340 860.028L340 862Z" fill="#F01010" stroke="#FF0000" stroke-width="4" mask="url(#path-17-inside-8_37_85)"/>
<line x1="359" y1="1110" x2="359" y2="1150" stroke="#FF0000" stroke-width="2"/>
<line x1="340" y1="1091" x2="20" y2="1091" stroke="#FF0000" stroke-width="2"/>
<mask id="path-20-inside-9_37_85" fill="white">
<path d="M20 1092C17.3736 1092 14.7728 1091.48 12.3463 1090.48C9.91982 1089.47 7.71503 1088 5.85786 1086.14C4.00069 1084.28 2.5275 1082.08 1.52241 1079.65C0.517314 1077.23 -8.55801e-07 1074.63 0 1072L1.97229 1072C1.97229 1074.37 2.43859 1076.71 3.34457 1078.9C4.25054 1081.09 5.57845 1083.07 7.25248 1084.75C8.92651 1086.42 10.9139 1087.75 13.1011 1088.66C15.2883 1089.56 17.6326 1090.03 20 1090.03L20 1092Z"/>
</mask>
<path d="M20 1092C17.3736 1092 14.7728 1091.48 12.3463 1090.48C9.91982 1089.47 7.71503 1088 5.85786 1086.14C4.00069 1084.28 2.5275 1082.08 1.52241 1079.65C0.517314 1077.23 -8.55801e-07 1074.63 0 1072L1.97229 1072C1.97229 1074.37 2.43859 1076.71 3.34457 1078.9C4.25054 1081.09 5.57845 1083.07 7.25248 1084.75C8.92651 1086.42 10.9139 1087.75 13.1011 1088.66C15.2883 1089.56 17.6326 1090.03 20 1090.03L20 1092Z" fill="#F01010" stroke="#FF0000" stroke-width="4" mask="url(#path-20-inside-9_37_85)"/>
<mask id="path-21-inside-10_37_85" fill="white">
<path d="M340 1090C342.626 1090 345.227 1090.52 347.654 1091.52C350.08 1092.53 352.285 1094 354.142 1095.86C355.999 1097.72 357.472 1099.92 358.478 1102.35C359.483 1104.77 360 1107.37 360 1110L358.028 1110C358.028 1107.63 357.561 1105.29 356.655 1103.1C355.749 1100.91 354.422 1098.93 352.748 1097.25C351.073 1095.58 349.086 1094.25 346.899 1093.34C344.712 1092.44 342.367 1091.97 340 1091.97L340 1090Z"/>
</mask>
<path d="M340 1090C342.626 1090 345.227 1090.52 347.654 1091.52C350.08 1092.53 352.285 1094 354.142 1095.86C355.999 1097.72 357.472 1099.92 358.478 1102.35C359.483 1104.77 360 1107.37 360 1110L358.028 1110C358.028 1107.63 357.561 1105.29 356.655 1103.1C355.749 1100.91 354.422 1098.93 352.748 1097.25C351.073 1095.58 349.086 1094.25 346.899 1093.34C344.712 1092.44 342.367 1091.97 340 1091.97L340 1090Z" fill="#F01010" stroke="#FF0000" stroke-width="4" mask="url(#path-21-inside-10_37_85)"/>
</svg>
