<svg width="543" height="1830" viewBox="0 0 543 1830" fill="none" xmlns="http://www.w3.org/2000/svg">
<path d="M1 0V232.41C1 243.456 9.95431 252.41 21 252.41H522C533.046 252.41 542 261.365 542 272.41V587C542 598.046 533.046 607 522 607H21C9.95431 607 1 615.954 1 627V938C1 949.046 9.95431 958 21 958H522C533.046 958 542 966.954 542 978V1281C542 1292.05 533.046 1301 522 1301H21C9.95431 1301 1 1309.95 1 1321V1651C1 1662.05 9.95431 1671 21 1671H522C533.046 1671 542 1679.95 542 1691V1829.5" stroke="#CF2C3C" stroke-width="2"/>
</svg>
